<?xml version="1.0" encoding="UTF-8"?>
<svg xmlns="http://www.w3.org/2000/svg" xmlns:xlink="http://www.w3.org/1999/xlink" fill="none"
    height="30.0" preserveAspectRatio="xMidYMid meet" style="fill: none;" version="1.0"
    viewBox="1.0 1.0 30.0 30.0" width="30.0" zoomAndPan="magnify">
    <g id="change1_1">
        <path clip-rule="evenodd"
            d="M16 31C24.2843 31 31 24.2843 31 16C31 7.71573 24.2843 1 16 1C7.71573 1 1 7.71573 1 16C1 24.2843 7.71573 31 16 31ZM9.18727 9.61845L16 15.0686L22.8127 9.61846L23.0094 9.45454H8.99058L9.18727 9.61845ZM23.7383 10.7405L24 10.5225V21.8182C24 22.2198 23.6744 22.5455 23.2727 22.5455H8.72727C8.32561 22.5455 8 22.2198 8 21.8182V10.5225L8.26168 10.7405L8.27295 10.7497L15.5457 16.5679C15.8113 16.7804 16.1887 16.7804 16.4543 16.5679L23.7271 10.7497L23.7383 10.7405Z"
            fill="#3142db" fill-rule="evenodd" />
    </g>
</svg>