<?xml version="1.0" encoding="UTF-8"?>
<svg xmlns="http://www.w3.org/2000/svg" xmlns:xlink="http://www.w3.org/1999/xlink" height="231.0"
    preserveAspectRatio="xMidYMid meet" version="1.0" viewBox="0.0 0.0 231.0 231.0" width="231.0"
    zoomAndPan="magnify">
    <g id="change1_1">
        <path
            d="M115.5,0C51.7,0,0,51.7,0,115.5c0,63.8,51.7,115.5,115.5,115.5c63.8,0,115.5-51.7,115.5-115.5C230.9,51.7,179.2,0,115.5,0z M115.5,196.9c-13.2,0-63.4-54.5-63.4-94.6c0-35.2,28.2-64.7,63.4-64.7c35.2,0,63.4,29.5,63.4,64.7 C178.9,142.3,128.7,196.9,115.5,196.9z"
            fill="#3142db" />

        <path
            d="M115.5,62.3c-2.9,0-5.7,0.3-8.3,0.9c1.6,1,3.1,2.4,4.3,4c4.9,6.8,3.3,16.2-3.5,21.1c-6.8,4.9-16.2,3.3-21.1-3.5 c-1.5-2.1-2.3-4.4-2.6-6.8C79.7,84.2,77,91.7,77,99.9c0,20.7,17.2,37.5,38.4,37.5c21.2,0,38.4-16.8,38.4-37.5 C153.9,79.1,136.7,62.3,115.5,62.3z"
            fill="#3142db" />
    </g>
</svg>