<?xml version="1.0" encoding="UTF-8"?>
<svg xmlns="http://www.w3.org/2000/svg" xmlns:xlink="http://www.w3.org/1999/xlink" fill="none"
    height="30.0" preserveAspectRatio="xMidYMid meet" style="fill: none;" version="1.0"
    viewBox="1.0 1.0 30.0 30.0" width="30.0" zoomAndPan="magnify">
    <g id="change1_1">
        <path clip-rule="evenodd"
            d="M16 31C24.2843 31 31 24.2843 31 16C31 7.71573 24.2843 1 16 1C7.71573 1 1 7.71573 1 16C1 24.2843 7.71573 31 16 31ZM8.52342 14.5198C7.73217 13.4342 7.84911 11.934 8.79904 10.9841L11.2504 8.53271C12.0288 7.75439 13.3146 7.84045 13.9823 8.71554L15.6287 10.8735C16.1812 11.5976 16.1128 12.6186 15.4688 13.2626L15.383 13.3484C15.0738 13.6577 15.0285 14.1433 15.2752 14.5044L15.3074 14.5516C15.8817 15.3922 16.6078 16.1183 17.4484 16.6926L17.4956 16.7248C17.8567 16.9715 18.3423 16.9262 18.6516 16.617L18.7374 16.5312C19.3814 15.8872 20.4024 15.8188 21.1265 16.3713L23.2845 18.0177C24.1596 18.6854 24.2456 19.9712 23.4673 20.7496L21.0159 23.201C20.066 24.1509 18.5658 24.2678 17.4802 23.4766L13.5673 20.6248C12.7271 20.0125 11.9875 19.2729 11.3752 18.4327L8.52342 14.5198ZM20.0688 10.1125V8.74851H21.8875V10.1125H23.2515V11.9312H21.8875V13.2952H20.0688V11.9312H18.7048V10.1125H20.0688Z"
            fill="#3142db" fill-rule="evenodd" />
    </g>
</svg>